HIERARCHY
ROOT Hips
{
	OFFSET	0.00	0.00	0.00
	CHANNELS 6 Xposition Yposition Zposition Zrotation Xrotation Yrotation
	JOINT LeftUpLeg
	{
		OFFSET	 0.126116	-0.014019	-0.065224
		CHANNELS 3 Zrotation Xrotation Yrotation
		JOINT LeftLeg
		{
			OFFSET	 0.000000	 0.000000	 0.569914
			CHANNELS 3 Zrotation Xrotation Yrotation
			JOINT LeftFoot
			{
				OFFSET	 0.000000	 0.000000	 0.544423
				CHANNELS 3 Zrotation Xrotation Yrotation
				JOINT LeftToeBase
				{
					OFFSET	 0.000000	 0.000000	 0.207117
					CHANNELS 3 Zrotation Xrotation Yrotation
					End Site
					{
						OFFSET	 0.000000	 0.000000	 0.207117
					}
				}
			}
		}
	}
	JOINT RightUpLeg
	{
		OFFSET	-0.124023	-0.008373	-0.065224
		CHANNELS 3 Zrotation Xrotation Yrotation
		JOINT RightLeg
		{
			OFFSET	 0.000000	 0.000000	 0.570047
			CHANNELS 3 Zrotation Xrotation Yrotation
			JOINT RightFoot
			{
				OFFSET	 0.000000	 0.000000	 0.544354
				CHANNELS 3 Zrotation Xrotation Yrotation
				JOINT RightToeBase
				{
					OFFSET	 0.000000	 0.000000	 0.207540
					CHANNELS 3 Zrotation Xrotation Yrotation
					End Site
					{
						OFFSET	 0.000000	 0.000000	 0.207540
					}
				}
			}
		}
	}
	JOINT Spine
	{
		OFFSET	 0.000184	-0.007763	 0.117403
		CHANNELS 3 Zrotation Xrotation Yrotation
		JOINT Spine1
		{
			OFFSET	 0.000000	 0.000000	 0.137269
			CHANNELS 3 Zrotation Xrotation Yrotation
			JOINT Spine2
			{
				OFFSET	 0.000000	 0.000000	 0.156879
				CHANNELS 3 Zrotation Xrotation Yrotation
				JOINT LeftShoulder
				{
					OFFSET	 0.080501	-0.002496	 0.160144
					CHANNELS 3 Zrotation Xrotation Yrotation
					JOINT LeftArm
					{
						OFFSET	 0.000000	 0.000000	 0.164363
						CHANNELS 3 Zrotation Xrotation Yrotation
						JOINT LeftForeArm
						{
							OFFSET	 0.000000	 0.000000	 0.364576
							CHANNELS 3 Zrotation Xrotation Yrotation
							JOINT LeftHand
							{
								OFFSET	 0.000000	 0.000000	 0.360812
								CHANNELS 3 Zrotation Xrotation Yrotation
								JOINT LeftHandIndex1
								{
									OFFSET	 0.000000	 0.000000	 0.086006
									CHANNELS 3 Zrotation Xrotation Yrotation
									JOINT LeftHandIndex2
									{
										OFFSET	 0.000000	 0.000000	 0.047237
										CHANNELS 3 Zrotation Xrotation Yrotation
										JOINT LeftHandIndex3
										{
											OFFSET	-0.004284	-0.000551	 0.038165
											CHANNELS 3 Zrotation Xrotation Yrotation
											End Site
											{
												OFFSET	-0.004284	-0.000551	 0.038165
											}
										}
									}
								}
							}
						}
					}
				}
				JOINT Neck
				{
					OFFSET	 0.000000	 0.000000	 0.176489
					CHANNELS 3 Zrotation Xrotation Yrotation
					JOINT Head
					{
						OFFSET	 0.000000	-0.001747	 0.077940
						CHANNELS 3 Zrotation Xrotation Yrotation
						End Site
						{
							OFFSET	 0.000000	-0.001747	 0.077940
						}
					}
				}
				JOINT RightShoulder
				{
					OFFSET	-0.080363	 0.000306	 0.159706
					CHANNELS 3 Zrotation Xrotation Yrotation
					JOINT RightArm
					{
						OFFSET	 0.000000	 0.000000	 0.164196
						CHANNELS 3 Zrotation Xrotation Yrotation
						JOINT RightForeArm
						{
							OFFSET	 0.000000	 0.000000	 0.365611
							CHANNELS 3 Zrotation Xrotation Yrotation
							JOINT RightHand
							{
								OFFSET	 0.000000	 0.000000	 0.360648
								CHANNELS 3 Zrotation Xrotation Yrotation
								JOINT RightHandIndex1
								{
									OFFSET	 0.000000	 0.000000	 0.069977
									CHANNELS 3 Zrotation Xrotation Yrotation
									JOINT RightHandIndex2
									{
										OFFSET	 0.000000	 0.000000	 0.052305
										CHANNELS 3 Zrotation Xrotation Yrotation
										JOINT RightHandIndex3
										{
											OFFSET	 0.009002	-0.000782	 0.042196
											CHANNELS 3 Zrotation Xrotation Yrotation
											End Site
											{
												OFFSET	 0.009002	-0.000782	 0.042196
											}
										}
									}
								}
							}
						}
					}
				}
			}
		}
	}
}
MOTION
Frames:    4
Frame Time: 0.03333334
-0.716214	-1.662342	 1.273525	 179.759800	 0.593678	 1.585383	-7.920932	-2.840702	 177.453200	 6.145736	-13.458120	 1.896609	-35.365810	 71.475320	 16.279310	-2.385833	 28.452760	 0.000004	-2.148792	-1.443280	 179.048400	-19.746240	-9.409866	-1.457553	 37.550850	 69.264690	-15.370250	 2.384659	 28.388700	-0.000001	-5.380627	-0.427491	-2.326496	-5.075841	 14.628710	-2.897699	 12.788020	-18.833910	 9.552102	-91.776090	 78.527360	 179.999900	-7.856503	-6.942169	 0.831530	-6.506482	-6.166142	-35.569950	 7.486232	-2.127346	-5.641377	-4.131196	 21.524690	 0.986298	-5.167839	 0.733520	 3.519257	-1.378229	 35.397820	-2.634230	 0.000022	-3.783157	-0.089647	-13.889650	 9.030262	 1.102199	 89.782160	 78.203870	 180.000000	 5.751919	-1.254849	-3.552722	 7.273986	-4.113742	 36.419670	 0.447916	-7.069520	 17.165110	 5.715225	 19.176060	-3.692089	 5.027514	 0.245388	-9.378011	-2.350882	 35.473990	 5.254307
-0.714494	-1.653997	 1.274380	-176.391600	 5.993340	-2.483241	-3.511598	-8.678282	-179.760800	 0.132844	-14.709950	 0.529644	-22.011080	 54.809200	 12.118860	-2.385833	 28.452760	 0.000004	 0.322756	-11.961960	-176.920500	-5.929576	-18.539170	 1.584051	 4.874713	 84.470570	 5.881526	 2.384659	 28.388700	-0.000001	-11.647050	 6.356699	 4.568063	-6.504684	-7.636415	-15.703040	 13.659130	-8.904625	 16.276480	-91.776210	 78.527400	-180.000000	-36.122720	 9.263164	 5.311138	-10.240580	-7.410410	-57.001010	 7.107093	-4.713238	-4.071256	-4.131196	 21.524690	 0.986298	-5.167839	 0.733520	 3.519257	-1.378229	 35.397820	-2.634230	 1.449420	 8.018758	 1.042412	-12.562860	-9.122327	-4.343957	 89.782070	 78.203890	-180.000000	-5.013386	 6.246197	-11.467930	 0.426144	-16.620630	 52.557480	-14.288790	 44.051150	 71.940270	 5.715225	 19.176060	-3.692089	 5.027514	 0.245388	-9.378011	-2.350882	 35.473990	 5.254307
-0.707823	-1.643451	 1.272606	-176.213700	 6.047028	-2.945123	-4.505766	-10.020270	 179.437700	 2.479989	-20.839020	 1.579445	-28.124290	 55.309530	 17.909780	-2.385833	 28.452760	 0.000004	 2.418250	-15.164580	-175.754600	-6.973478	-22.990340	 1.535756	 38.109710	 86.204760	-26.597540	 2.384659	 28.388700	-0.000001	-14.137190	 5.110108	 4.868239	-8.658647	-1.674398	-17.220470	 14.947880	-11.695630	 17.917810	-91.776180	 78.527420	 180.000000	-30.715780	 18.412440	 10.838130	-12.865320	-7.451549	-73.843790	 6.133957	-5.441498	-3.808360	-4.131196	 21.524690	 0.986298	-5.167839	 0.733520	 3.519257	-1.378229	 35.397820	-2.634230	 1.510364	 8.067917	 1.281664	-12.391000	-9.100613	-4.309839	 89.782130	 78.203920	 180.000000	-8.100064	 15.114720	-14.914150	 4.957023	-18.955970	 67.165970	-11.633350	 39.495800	 61.277270	 5.715225	 19.176060	-3.692089	 5.027514	 0.245388	-9.378011	-2.350882	 35.473990	 5.254307
-0.702620	-1.634500	 1.271379	-176.218200	 6.311042	-3.018823	-5.828996	-10.525430	 178.492000	 3.858408	-24.465610	 2.413260	-32.082660	 55.462040	 21.968250	-2.385833	 28.452760	 0.000004	 2.947263	-17.735020	-174.982200	-6.958375	-25.684210	 1.710674	 38.849220	 83.197670	-27.722000	 2.384659	 28.388700	-0.000001	-16.122120	 4.036922	 4.468727	-10.447900	 3.349195	-17.953490	 16.193470	-14.180810	 19.386340	-91.776120	 78.527380	 180.000000	-25.025970	 25.671360	 9.142115	-13.693730	-7.094183	-79.468150	 5.654117	-5.824151	-3.699331	-4.131196	 21.524690	 0.986298	-5.167839	 0.733520	 3.519257	-1.378229	 35.397820	-2.634230	 1.658342	 8.186044	 1.168046	-12.359010	-9.376553	-4.345780	 89.782140	 78.203900	 180.000000	-10.401700	 23.359970	-15.121270	 7.276796	-19.870540	 74.341740	-14.663110	 34.812760	 56.982390	 5.715225	 19.176060	-3.692089	 5.027514	 0.245388	-9.378011	-2.350882	 35.473990	 5.254307
